<?xml version="1.0" encoding="UTF-8" standalone="no"?>
<!DOCTYPE svg PUBLIC "-//W3C//DTD SVG 1.1//EN" "http://www.w3.org/Graphics/SVG/1.1/DTD/svg11.dtd">
<svg version="1.1" xmlns="http://www.w3.org/2000/svg" xmlns:xlink="http://www.w3.org/1999/xlink" preserveAspectRatio="xMidYMid meet" viewBox="0 0 640 640" width="640" height="640"><defs><path d="M350 250C350 277.6 327.6 300 300 300C272.4 300 250 277.6 250 250C250 222.4 272.4 200 300 200C327.6 200 350 222.4 350 250Z" id="a25U0MMsJc"></path><path d="M280 174.47L320 174.47L310 134.47L288.71 134.47L280 174.47Z" id="a4Z8k9x6T"></path><path d="M280 326.65L320 326.65L310 366.65L288.71 366.65L280 326.65Z" id="c3zyo0nBrJ"></path><path d="M375.53 230L375.53 270L415.53 260L415.53 238.71L375.53 230Z" id="g1xc3fEvus"></path><path d="M224.47 230L224.47 270L184.47 260L184.47 238.71L224.47 230Z" id="bcQmDPpvm"></path><path d="M231.72 290L260 318.28L224.64 339.5L209.59 324.44L231.72 290Z" id="foDekiYn"></path><path d="M368.28 210L340 181.72L375.36 160.5L390.41 175.56L368.28 210Z" id="atacUlszN"></path><path d="M232.12 210L260.41 181.72L225.05 160.5L210 175.56L232.12 210Z" id="b8mMF1eMF0"></path><path d="M368.28 290L340 318.28L375.36 339.5L390.41 324.44L368.28 290Z" id="e31kzsEXGY"></path><path d="M323.75 250C323.75 263.11 313.11 273.75 300 273.75C286.89 273.75 276.25 263.11 276.25 250C276.25 236.89 286.89 226.25 300 226.25C313.11 226.25 323.75 236.89 323.75 250Z" id="aYgRyb5RW"></path></defs><g><g><g><g><use xlink:href="#a25U0MMsJc" opacity="1" fill-opacity="0" stroke="#989898" stroke-width="30" stroke-opacity="1"></use></g></g><g><use xlink:href="#a4Z8k9x6T" opacity="1" fill="#9b9b9b" fill-opacity="1"></use></g><g><use xlink:href="#c3zyo0nBrJ" opacity="1" fill="#9b9b9b" fill-opacity="1"></use></g><g><use xlink:href="#g1xc3fEvus" opacity="1" fill="#9b9b9b" fill-opacity="1"></use></g><g><use xlink:href="#bcQmDPpvm" opacity="1" fill="#9b9b9b" fill-opacity="1"></use></g><g><use xlink:href="#foDekiYn" opacity="1" fill="#9b9b9b" fill-opacity="1"></use></g><g><use xlink:href="#atacUlszN" opacity="1" fill="#9b9b9b" fill-opacity="1"></use></g><g><use xlink:href="#b8mMF1eMF0" opacity="1" fill="#9b9b9b" fill-opacity="1"></use></g><g><use xlink:href="#e31kzsEXGY" opacity="1" fill="#9b9b9b" fill-opacity="1"></use></g><g><use xlink:href="#aYgRyb5RW" opacity="1" fill="#989898" fill-opacity="1"></use></g></g></g></svg>